<?xml version="1.0" encoding="UTF-8" standalone="no"?>
<svg
   xmlns:dc="http://purl.org/dc/elements/1.1/"
   xmlns:cc="http://creativecommons.org/ns#"
   xmlns:rdf="http://www.w3.org/1999/02/22-rdf-syntax-ns#"
   xmlns:svg="http://www.w3.org/2000/svg"
   xmlns="http://www.w3.org/2000/svg"
   version="1.1"
   id="svg885"
   width="202"
   height="202"
   viewBox="0 0 202 202">
  <metadata
     id="metadata891">
    <rdf:RDF>
      <cc:Work
         rdf:about="">
        <dc:format>image/svg+xml</dc:format>
        <dc:type
           rdf:resource="http://purl.org/dc/dcmitype/StillImage" />
        <dc:title></dc:title>
      </cc:Work>
    </rdf:RDF>
  </metadata>
  <defs
     id="defs889" />
  <path
     id="path940"
     style="fill:#cde7fa;fill-opacity:1;stroke:none;stroke-width:1.4713428px;stroke-linecap:butt;stroke-linejoin:miter;stroke-opacity:1"
     d="m 26.775381,137.96795 6.7359,-21.55488 10.308282,-11.057 4.416601,1.21241 -2.9444,36.89161 z m 125.655159,-32.33232 4.89883,-1.7146 15.18641,17.88076 0.73482,16.16616 -19.10546,6.85837 z m -70.175834,-30.495264 3.184243,-4.898838 15.553811,-8.205551 18.98298,10.042615 v 8.083081 L 99.645575,99.022195 Z" />
  <path
     id="path926"
     style="fill:none;fill-opacity:1;stroke:#2d527c;stroke-width:8.23952007;stroke-linecap:round;stroke-linejoin:round;stroke-miterlimit:4;stroke-dasharray:none;stroke-opacity:1"
     d="m 46.677363,145.53848 c -2.771993,-25.16572 0.18239,-44.82115 14.673724,-53.374999 m 0,0 C 47.415522,102.78462 30.259464,105.47062 24.85416,139.47648 l 21.823203,6.062 c 20.302072,44.32511 63.097977,48.8277 87.812417,26.67281 m 6.84417,-80.394205 c 7.49103,11.088215 17.25118,11.805455 13.91341,55.213705 l 20.08524,-6.61343 c 1.27745,-21.69684 -12.44863,-36.15655 -33.99865,-48.600275 z M 61.351087,92.163481 C 51.825601,82.9926 48.358765,73.094347 48.358763,59.100055 48.35876,31.111468 71.925307,8.4222363 100.99611,8.4222333 c 29.07081,-5.9e-6 52.63737,22.6892297 52.63737,50.6778217 0,13.994295 -2.77404,23.54615 -12.29953,32.71703 m -40.34119,93.324275 c -20.174167,0 -34.986949,-24.74725 -34.986949,-47.74326 1e-6,-22.99602 14.795595,-38.000762 34.969759,-38.000759 20.17416,6e-6 35.48934,13.099559 35.48934,36.095559 m -53.414143,-64.266639 -2.02077,6.975872 19.962763,23.269477 20.2077,-23.269477 -2.26572,-7.465751 M 66.940868,55.42254 c 2e-6,-8.728153 7.212648,-15.80372 16.109899,-15.80372 8.897252,0 16.109899,7.075567 16.109899,15.80372 2e-6,8.728154 -7.212646,15.803721 -16.109899,15.803721 m 35.883973,-0.489879 c -8.89726,-3e-6 -16.1099,-7.075569 -16.1099,-15.80372 0,-8.728153 7.21264,-15.803718 16.1099,-15.803721 8.89725,-6e-6 16.10991,7.075562 16.10991,15.803721" />
  <path
     id="path936"
     style="fill:#cde7fa;fill-opacity:1;stroke:#2d527c;stroke-width:7.54482603;stroke-linecap:round;stroke-linejoin:round;stroke-miterlimit:4;stroke-dasharray:none;stroke-opacity:1;paint-order:normal"
     d="m 161.27111,191.60969 c -12.12152,0 -24.72943,0 -40.47681,0 0,-11.48571 9.06104,-20.79671 20.2384,-20.79671 11.17737,0 20.23841,9.311 20.23841,20.79671 z m -78.286413,0 c -12.121523,0 -24.729433,0 -40.476821,0 10e-7,-11.48571 9.061045,-20.79671 20.238409,-20.79671 11.177365,0 20.23841,9.311 20.238412,20.79671 z" />
</svg>
